<?xml version="1.0" encoding="utf-8"?>
<!-- Generator: Adobe Illustrator 21.0.0, SVG Export Plug-In . SVG Version: 6.00 Build 0)  -->
<svg version="1.1" xmlns="http://www.w3.org/2000/svg" xmlns:xlink="http://www.w3.org/1999/xlink" x="0px" y="0px"
	 viewBox="0 0 64 64" style="enable-background:new 0 0 64 64;" xml:space="preserve">
<style type="text/css">
	.st0{fill:#00D65F;}
	.st1{fill:#FFFFFF;}
</style>
<g id="_1-facebook">
	<title></title>
	<path class="st0" d="M11.2,0h41.6C59,0,64,5,64,11.2v41.6C64,59,59,64,52.8,64H11.2C5,64,0,59,0,52.8V11.2C0,5,5,0,11.2,0z"/>
</g>
<g id="Capa_2">
	<g>
		<path class="st1" d="M12.3,15.8l2.9-0.8l3.5-0.8l3.3-0.4l3.2-0.2h3.3l3.3,0.2l3.8,0.5l3.8,0.8l2.7,0.7l3.4,1.4l2.6,1.1l2.7,1.5
			l1.7,1.2l0.7,0.5c0,0,2.2,2.4,0.6,4.9C52,28.8,50.7,28,50.7,28l-1.5-0.6l-1.9-1.3l-1.6-0.9L44,24.4l-2.2-0.9L39,22.6L36.1,22
			L33,21.3l-2.9-0.2h-3.3h-3.6l-1.8,0.2l-2.6,0.4l-2.2,0.5L15,22.6l-1.5,0.7h-1.2c0,0-2.1-0.4-2.6-3.8C9.8,19.5,10,16.1,12.3,15.8z"
			/>
		<path class="st1" d="M13.4,29.2l2-0.6l2.2-0.7l1.9-0.4l2-0.4l2.1-0.3h2.1h2.3l2.2,0.2l2,0.3l2,0.4l2.1,0.5l1.8,0.5l1.8,0.6
			l1.7,0.7l1.8,0.9l1.6,0.9l1.5,0.9l1.4,0.9l0.7,0.6c0,0,1.7,1.8,0.7,4.1s-2.8,1.6-2.8,1.6l-1.1-0.7l-1.3-0.9l-1.4-0.9l-1.2-0.7
			l-1.3-0.6l-1.5-0.7L37,34.9l-1.6-0.5L33.5,34l-2.3-0.5l-2-0.2l-2.1-0.2l-1.8,0l-1.8,0.1l-1.9,0.3l-2,0.3L18,34.2l-1.7,0.5
			l-1.3,0.5c0,0-2.3,0.4-2.9-2.8C12,32.5,11.7,30.2,13.4,29.2z"/>
		<path class="st1" d="M14.5,41.4l2.3-0.7l2-0.4l2-0.4l1.9-0.2l2.5-0.1h1.8l2.1,0.1l2.6,0.3l2.2,0.4l2.4,0.7l2.4,0.9l1.9,0.9
			l2.3,1.4l1.3,0.9l1.1,0.9c0,0,1.2,1.7,0,3.3c-1.2,1.6-2.3,0.7-2.3,0.7L42,49.4l-1.2-0.8L39,47.5l-1.7-0.8l-1.7-0.6l-1.8-0.6
			L31.9,45l-1.8-0.3l-1.6-0.2l-2.3,0l-2.2,0.1l-1.6,0.1l-1,0.2L20,45.2l-1.5,0.4L17,46l-1.4,0.3c0,0-1.6,0.7-2.3-2.1
			C13.3,44.2,13,41.9,14.5,41.4z"/>
	</g>
</g>
</svg>
